<svg width="166" height="166" viewBox="0 0 166 166" fill="none" xmlns="http://www.w3.org/2000/svg">
<g id="gear-shape" viewBox="0 0 166 166" filter="url(#filter0_d_164_2)">
<mask id="path-1-inside-1_164_2" fill="white">
<path d="M75.1 23.5508C60.3661 25.6311 47.4749 33.4453 38.7562 44.6633L46.2896 49.0127C53.4012 40.317 63.5414 34.1945 75.1 32.2554V23.5508Z"/>
<path d="M30.9159 58.3809C28.3875 64.7623 26.998 71.7189 26.998 79C26.998 86.5256 28.4824 93.7046 31.1744 100.26L38.715 95.9356C36.7026 90.6763 35.6 84.9669 35.6 79C35.6 73.287 36.6107 67.8101 38.4631 62.7383L30.9159 58.3809Z"/>
<path d="M39.1841 113.88C47.8939 124.807 60.6053 132.403 75.1 134.449V125.745C63.7885 123.847 53.8355 117.943 46.7499 109.542L39.1841 113.88Z"/>
<path d="M90.9 134.449C105.435 132.397 118.176 124.765 126.888 113.79L119.341 109.433C112.25 117.892 102.26 123.839 90.9 125.745V134.449Z"/>
<path d="M134.869 100.154C137.534 93.6272 139.002 86.4851 139.002 79C139.002 71.8749 137.671 65.0607 135.245 58.7921L127.679 63.1314C129.441 68.0926 130.4 73.4343 130.4 79C130.4 84.9173 129.316 90.5813 127.335 95.8043L134.869 100.154Z"/>
<path d="M127.513 45.0126C118.792 33.6076 105.786 25.6527 90.9 23.5508V32.2554C102.602 34.2185 112.849 40.4691 119.973 49.3366L127.513 45.0126Z"/>
<path fill-rule="evenodd" clip-rule="evenodd" d="M67.2 7.9C67.2 3.53695 70.737 0 75.1 0H90.9C95.2631 0 98.8 3.53695 98.8 7.9V17.7911C104.599 19.2836 110.076 21.5784 115.105 24.5502L122.102 17.5528C125.187 14.4677 130.189 14.4677 133.274 17.5528L144.447 28.7251C147.532 31.8103 147.532 36.8123 144.447 39.8974L137.449 46.8946C140.421 51.924 142.716 57.4009 144.209 63.2H154.1C158.463 63.2 162 66.737 162 71.1V86.9C162 91.2631 158.463 94.8 154.1 94.8H144.209C142.716 100.599 140.421 106.076 137.449 111.105L144.447 118.103C147.532 121.188 147.532 126.19 144.447 129.275L133.275 140.448C130.19 143.533 125.188 143.533 122.102 140.448L115.105 133.45C110.076 136.422 104.599 138.716 98.8 140.209V150.1C98.8 154.463 95.2631 158 90.9 158H75.1C70.737 158 67.2 154.463 67.2 150.1V140.209C61.401 138.716 55.924 136.421 50.8946 133.449L43.8961 140.448C40.8109 143.533 35.8089 143.533 32.7238 140.448L21.5515 129.276C18.4664 126.191 18.4664 121.189 21.5515 118.103L28.5502 111.105C25.5784 106.076 23.2836 100.599 21.7911 94.8H11.9C7.53695 94.8 4 91.2631 4 86.9V71.1C4 66.7369 7.53695 63.2 11.9 63.2H21.7911C23.2836 57.4012 25.5784 51.9245 28.5502 46.8952L21.5519 39.8969C18.4667 36.8118 18.4667 31.8098 21.5519 28.7247L32.7242 17.5524C35.8093 14.4672 40.8113 14.4672 43.8964 17.5524L50.8946 24.5505C55.924 21.5786 61.4009 19.2836 67.2 17.7911V7.9ZM83 138.25C115.723 138.25 142.25 111.723 142.25 79C142.25 46.2771 115.723 19.75 83 19.75C50.2771 19.75 23.75 46.2771 23.75 79C23.75 111.723 50.2771 138.25 83 138.25Z"/>
<path d="M130 79C130 104.957 108.957 126 83 126C57.0426 126 36 104.957 36 79C36 53.0426 57.0426 32 83 32C108.957 32 130 53.0426 130 79ZM42.0918 79C42.0918 101.593 60.407 119.908 83 119.908C105.593 119.908 123.908 101.593 123.908 79C123.908 56.407 105.593 38.0918 83 38.0918C60.407 38.0918 42.0918 56.407 42.0918 79Z"/>
<path fill-rule="evenodd" clip-rule="evenodd" d="M83.0002 94.8C91.7263 94.8 98.8002 87.7261 98.8002 79C98.8002 70.2739 91.7263 63.2 83.0002 63.2C74.2741 63.2 67.2002 70.2739 67.2002 79C67.2002 87.7261 74.2741 94.8 83.0002 94.8ZM90.9002 71.1H75.1002V86.9H90.9002V71.1Z"/>
<path d="M74.8066 92.2857C69.7824 89.8803 63.5791 90.759 59.4163 94.9218C55.2573 99.0808 54.3764 105.277 56.7737 110.298C55.4294 109.655 54.1695 108.776 53.0558 107.662C47.7792 102.386 47.7792 93.8307 53.0558 88.5541C58.3323 83.2775 66.8874 83.2775 72.164 88.5541C73.2815 89.6717 74.1624 90.9363 74.8066 92.2857Z"/>
<path d="M96.821 87.274C95.6379 92.6872 97.7943 98.3614 102.599 101.232C107.399 104.099 113.41 103.313 117.615 99.7154C117.298 101.163 116.743 102.593 115.935 103.945C112.108 110.351 104.069 112.595 97.9782 108.957C91.8876 105.319 90.0524 97.1759 93.8792 90.7697C94.6902 89.4121 95.6903 88.2414 96.821 87.274Z"/>
<path d="M83.4733 59.8886C88.7326 61.7043 94.7564 60.147 98.3626 55.575C101.965 51.007 102.08 44.7932 99.097 40.1031C100.504 40.5888 101.856 41.3159 103.093 42.2913C108.952 46.9125 109.996 55.3567 105.425 61.1519C100.854 66.947 92.3992 67.8986 86.5402 63.2773C85.2994 62.2987 84.2746 61.1486 83.4733 59.8886Z"/>
<path d="M75 59.5C75 65.8513 69.6274 71 63 71C56.3726 71 51 65.8513 51 59.5C51 53.1487 56.3726 48 63 48C69.6274 48 75 53.1487 75 59.5ZM52.3299 59.5C52.3299 65.1474 57.1071 69.7255 63 69.7255C68.893 69.7255 73.6701 65.1474 73.6701 59.5C73.6701 53.8526 68.893 49.2745 63 49.2745C57.1071 49.2745 52.3299 53.8526 52.3299 59.5Z"/>
<path d="M68.999 59.5C68.999 62.8624 66.3132 65.5882 63 65.5882C59.6868 65.5882 57.001 62.8624 57.001 59.5C57.001 56.1376 59.6868 53.4118 63 53.4118C66.3132 53.4118 68.999 56.1376 68.999 59.5Z"/>
<path d="M63.3948 71C63.21 71 63.0374 70.9071 62.9455 70.7443C62.6634 70.2449 62.1186 69.1212 62.4234 68.3486C62.6756 67.7095 63.693 67.5017 63.693 66.8454C63.693 66.189 62.4044 65.9984 62.4234 65.3421C62.4331 65.0041 62.7941 64.5645 62.9844 64.3556C63.0564 64.2766 63.1584 64.2353 63.2645 64.2353C63.6448 64.2353 63.821 64.7524 63.7136 65.1226C63.6916 65.1982 63.683 65.2724 63.693 65.3421C63.769 65.8694 64.7785 65.9517 64.9627 66.4696C65.2377 67.243 63.8969 67.5675 63.693 68.3486C63.5539 68.8816 63.7373 69.5687 63.9479 70.11C64.1057 70.5156 63.8246 71 63.3948 71Z"/>
<path d="M62.6052 48C62.79 48 62.9626 48.0929 63.0545 48.2557C63.3366 48.7551 63.8814 49.8788 63.5766 50.6514C63.3244 51.2905 62.307 51.4983 62.307 52.1546C62.307 52.811 63.5956 53.0016 63.5766 53.6579C63.5669 53.9959 63.2059 54.4355 63.0156 54.6444C62.9436 54.7234 62.8416 54.7647 62.7355 54.7647C62.3552 54.7647 62.179 54.2476 62.2864 53.8774C62.3084 53.8018 62.317 53.7276 62.307 53.6579C62.231 53.1306 61.2215 53.0483 61.0373 52.5304C60.7623 51.757 62.1031 51.4325 62.307 50.6514C62.4461 50.1184 62.2627 49.4313 62.0521 48.89C61.8943 48.4844 62.1754 48 62.6052 48Z"/>
<path d="M75 59.6836C75.0015 59.8712 74.9113 60.0471 74.7517 60.1417C74.2619 60.4319 73.159 60.9939 72.3953 60.6908C71.7635 60.44 71.5507 59.4091 70.904 59.4143C70.2572 59.4196 70.0797 60.7288 69.4329 60.7149C69.0998 60.7077 68.6638 60.3448 68.4565 60.1534C68.378 60.081 68.3365 59.9778 68.3356 59.8701C68.3326 59.4842 68.8407 59.3013 69.2064 59.4073C69.281 59.4289 69.3542 59.4371 69.4228 59.4264C69.9417 59.3451 70.0147 58.3199 70.5235 58.1289C71.2833 57.8436 71.6139 59.2017 72.3852 59.4023C72.9114 59.5392 73.587 59.3476 74.1186 59.1295C74.517 58.9661 74.9965 59.2475 75 59.6836Z"/>
<path d="M67.0833 56.2509C66.9526 56.1183 66.8953 55.9287 66.9437 55.7477C67.0922 55.1921 67.4899 54.0065 68.2437 53.679C68.8674 53.408 69.7316 53.9912 70.1889 53.5271C70.6462 53.063 69.8679 52.0035 70.3385 51.553C70.5809 51.321 71.1425 51.2692 71.4225 51.2581C71.5286 51.2539 71.6294 51.2979 71.7044 51.374C71.9734 51.6469 71.7377 52.139 71.4037 52.3237C71.3356 52.3614 71.2778 52.4076 71.2363 52.4642C70.9226 52.8915 71.5791 53.6742 71.3485 54.1725C71.0041 54.9168 69.8299 54.1841 69.1415 54.5901C68.6718 54.8671 68.3227 55.4846 68.0945 56.0184C67.9235 56.4186 67.3872 56.5593 67.0833 56.2509Z"/>
<path d="M54.1362 51.4676C54.2669 51.3349 54.4537 51.2768 54.6321 51.3259C55.1795 51.4766 56.3477 51.8802 56.6705 52.6452C56.9375 53.2781 56.3628 54.1552 56.8201 54.6193C57.2774 55.0834 58.3214 54.2935 58.7653 54.7712C58.9939 55.0172 59.0449 55.5871 59.0559 55.8713C59.06 55.9789 59.0167 56.0812 58.9417 56.1574C58.6727 56.4303 58.1879 56.1911 58.0059 55.8522C57.9687 55.783 57.9232 55.7244 57.8675 55.6823C57.4464 55.364 56.6752 56.0302 56.1842 55.7962C55.4508 55.4467 56.1728 54.2549 55.7727 53.5563C55.4997 53.0797 54.8913 52.7254 54.3653 52.4938C53.971 52.3202 53.8323 51.776 54.1362 51.4676Z"/>
<path d="M70.5848 68.2021C70.4247 68.2959 70.2295 68.303 70.0697 68.2087C69.5794 67.9193 68.5538 67.2226 68.4372 66.3989C68.3407 65.7174 69.1195 65.0212 68.7961 64.4528C68.4728 63.8844 67.2629 64.3731 66.956 63.7952C66.7979 63.4975 66.894 62.9336 66.9558 62.6562C66.9792 62.5512 67.0472 62.4637 67.1391 62.4098C67.4685 62.2169 67.8758 62.5753 67.9652 62.9504C67.9835 63.027 68.0125 63.0956 68.0555 63.1509C68.3811 63.569 69.2959 63.1281 69.7105 63.4831C70.3298 64.0133 69.3285 64.9748 69.5368 65.7547C69.6789 66.2868 70.1762 66.7888 70.6253 67.1507C70.9618 67.4219 70.957 67.984 70.5848 68.2021Z"/>
<path d="M55.0852 68.4274C54.9546 68.2948 54.8973 68.1052 54.9457 67.9242C55.0942 67.3686 55.4919 66.183 56.2456 65.8554C56.8693 65.5845 57.7335 66.1677 58.1908 65.7036C58.6481 65.2395 57.8698 64.18 58.3404 63.7295C58.5828 63.4975 59.1444 63.4457 59.4245 63.4346C59.5305 63.4303 59.6313 63.4743 59.7064 63.5505C59.9753 63.8234 59.7396 64.3154 59.4057 64.5002C59.3375 64.5379 59.2797 64.5841 59.2382 64.6406C58.9246 65.068 59.581 65.8507 59.3504 66.349C59.0061 67.0932 57.8318 66.3605 57.1434 66.7666C56.6737 67.0436 56.3246 67.6611 56.0964 68.1949C55.9254 68.595 55.3891 68.7358 55.0852 68.4274Z"/>
<path d="M51 59.3164C50.9985 59.1288 51.0887 58.9529 51.2483 58.8583C51.7381 58.5681 52.841 58.0061 53.6047 58.3092C54.2365 58.56 54.4493 59.5909 55.096 59.5857C55.7428 59.5804 55.9203 58.2712 56.5671 58.2851C56.9002 58.2923 57.3362 58.6552 57.5435 58.8466C57.622 58.919 57.6635 59.0222 57.6644 59.1299C57.6674 59.5158 57.1593 59.6987 56.7936 59.5927C56.719 59.5711 56.6459 59.5629 56.5772 59.5736C56.0583 59.6549 55.9853 60.6801 55.4765 60.8711C54.7167 61.1564 54.3861 59.7983 53.6148 59.5977C53.0886 59.4608 52.413 59.6524 51.8814 59.8705C51.483 60.0339 51.0035 59.7525 51 59.3164Z"/>
<path fill-rule="evenodd" clip-rule="evenodd" d="M80.1698 88.2759C79.8767 87.3416 78.5545 87.3416 78.2615 88.2759L74.6385 99.8257C74.5077 100.243 74.1213 100.526 73.6843 100.526L61.8872 100.526C60.927 100.526 60.5187 101.748 61.2859 102.325L70.8898 109.553C71.228 109.808 71.3693 110.247 71.2426 110.651L67.5887 122.3C67.2977 123.227 68.3674 123.983 69.1441 123.398L78.6143 116.271C78.9704 116.003 79.4608 116.003 79.8169 116.271L89.2871 123.398C90.0638 123.983 91.1335 123.227 90.8426 122.3L87.1886 110.651C87.0619 110.247 87.2032 109.808 87.5414 109.553L97.1454 102.325C97.9126 101.748 97.5042 100.526 96.544 100.526L84.7469 100.526C84.3099 100.526 83.9236 100.243 83.7928 99.8257L80.1698 88.2759ZM80.1255 104.122C79.8456 103.23 78.583 103.23 78.3032 104.122L78.0917 104.796C77.9668 105.194 77.5979 105.465 77.1806 105.465H76.4268C75.5099 105.465 75.1199 106.632 75.8526 107.183L76.5196 107.685C76.8425 107.928 76.9775 108.348 76.8565 108.734L76.6155 109.502C76.3376 110.388 77.3591 111.109 78.1008 110.551L78.6401 110.145C78.9802 109.889 79.4485 109.889 79.7885 110.145L80.3278 110.551C81.0695 111.109 82.091 110.388 81.8132 109.502L81.5722 108.734C81.4512 108.348 81.5861 107.928 81.9091 107.685L82.5761 107.183C83.3087 106.632 82.9188 105.465 82.0019 105.465H81.2481C80.8308 105.465 80.4618 105.194 80.3369 104.796L80.1255 104.122Z"/>
<path fill-rule="evenodd" clip-rule="evenodd" d="M111.77 56.6759C111.477 55.7416 110.155 55.7416 109.862 56.6759L106.239 68.2257C106.108 68.6426 105.721 68.9264 105.284 68.9264L93.4873 68.9264C92.5271 68.9264 92.1188 70.148 92.886 70.7254L102.49 77.953C102.828 78.2075 102.969 78.6474 102.843 79.0513L99.1888 90.6998C98.8978 91.6273 99.9675 92.3827 100.744 91.7981L110.214 84.6712C110.57 84.4032 111.061 84.4032 111.417 84.6712L120.887 91.7981C121.664 92.3827 122.734 91.6273 122.443 90.6998L118.789 79.0513C118.662 78.6474 118.803 78.2075 119.142 77.953L128.745 70.7254C129.513 70.148 129.104 68.9264 128.144 68.9264L116.347 68.9264C115.91 68.9264 115.524 68.6426 115.393 68.2257L111.77 56.6759ZM111.726 72.5219C111.446 71.6298 110.183 71.6298 109.903 72.5219L109.692 73.1961C109.567 73.5942 109.198 73.8652 108.781 73.8652H108.027C107.11 73.8652 106.72 75.0317 107.453 75.5831L108.12 76.085C108.443 76.3281 108.578 76.7482 108.457 77.1339L108.216 77.9022C107.938 78.7879 108.959 79.5092 109.701 78.951L110.24 78.5452C110.58 78.2893 111.049 78.2893 111.389 78.5452L111.928 78.951C112.67 79.5092 113.691 78.7879 113.413 77.9022L113.172 77.1339C113.051 76.7482 113.186 76.3281 113.509 76.085L114.176 75.5831C114.909 75.0317 114.519 73.8652 113.602 73.8652H112.848C112.431 73.8652 112.062 73.5942 111.937 73.1961L111.726 72.5219Z"/>
</mask>
<path d="M75.1 23.5508C60.3661 25.6311 47.4749 33.4453 38.7562 44.6633L46.2896 49.0127C53.4012 40.317 63.5414 34.1945 75.1 32.2554V23.5508Z" fill="#C5F7E5"/>
<path d="M30.9159 58.3809C28.3875 64.7623 26.998 71.7189 26.998 79C26.998 86.5256 28.4824 93.7046 31.1744 100.26L38.715 95.9356C36.7026 90.6763 35.6 84.9669 35.6 79C35.6 73.287 36.6107 67.8101 38.4631 62.7383L30.9159 58.3809Z" fill="#C5F7E5"/>
<path d="M39.1841 113.88C47.8939 124.807 60.6053 132.403 75.1 134.449V125.745C63.7885 123.847 53.8355 117.943 46.7499 109.542L39.1841 113.88Z" fill="#C5F7E5"/>
<path d="M90.9 134.449C105.435 132.397 118.176 124.765 126.888 113.79L119.341 109.433C112.25 117.892 102.26 123.839 90.9 125.745V134.449Z" fill="#C5F7E5"/>
<path d="M134.869 100.154C137.534 93.6272 139.002 86.4851 139.002 79C139.002 71.8749 137.671 65.0607 135.245 58.7921L127.679 63.1314C129.441 68.0926 130.4 73.4343 130.4 79C130.4 84.9173 129.316 90.5813 127.335 95.8043L134.869 100.154Z" fill="#C5F7E5"/>
<path d="M127.513 45.0126C118.792 33.6076 105.786 25.6527 90.9 23.5508V32.2554C102.602 34.2185 112.849 40.4691 119.973 49.3366L127.513 45.0126Z" fill="#C5F7E5"/>
<path fill-rule="evenodd" clip-rule="evenodd" d="M67.2 7.9C67.2 3.53695 70.737 0 75.1 0H90.9C95.2631 0 98.8 3.53695 98.8 7.9V17.7911C104.599 19.2836 110.076 21.5784 115.105 24.5502L122.102 17.5528C125.187 14.4677 130.189 14.4677 133.274 17.5528L144.447 28.7251C147.532 31.8103 147.532 36.8123 144.447 39.8974L137.449 46.8946C140.421 51.924 142.716 57.4009 144.209 63.2H154.1C158.463 63.2 162 66.737 162 71.1V86.9C162 91.2631 158.463 94.8 154.1 94.8H144.209C142.716 100.599 140.421 106.076 137.449 111.105L144.447 118.103C147.532 121.188 147.532 126.19 144.447 129.275L133.275 140.448C130.19 143.533 125.188 143.533 122.102 140.448L115.105 133.45C110.076 136.422 104.599 138.716 98.8 140.209V150.1C98.8 154.463 95.2631 158 90.9 158H75.1C70.737 158 67.2 154.463 67.2 150.1V140.209C61.401 138.716 55.924 136.421 50.8946 133.449L43.8961 140.448C40.8109 143.533 35.8089 143.533 32.7238 140.448L21.5515 129.276C18.4664 126.191 18.4664 121.189 21.5515 118.103L28.5502 111.105C25.5784 106.076 23.2836 100.599 21.7911 94.8H11.9C7.53695 94.8 4 91.2631 4 86.9V71.1C4 66.7369 7.53695 63.2 11.9 63.2H21.7911C23.2836 57.4012 25.5784 51.9245 28.5502 46.8952L21.5519 39.8969C18.4667 36.8118 18.4667 31.8098 21.5519 28.7247L32.7242 17.5524C35.8093 14.4672 40.8113 14.4672 43.8964 17.5524L50.8946 24.5505C55.924 21.5786 61.4009 19.2836 67.2 17.7911V7.9ZM83 138.25C115.723 138.25 142.25 111.723 142.25 79C142.25 46.2771 115.723 19.75 83 19.75C50.2771 19.75 23.75 46.2771 23.75 79C23.75 111.723 50.2771 138.25 83 138.25Z" fill="#C5F7E5"/>
<path d="M130 79C130 104.957 108.957 126 83 126C57.0426 126 36 104.957 36 79C36 53.0426 57.0426 32 83 32C108.957 32 130 53.0426 130 79ZM42.0918 79C42.0918 101.593 60.407 119.908 83 119.908C105.593 119.908 123.908 101.593 123.908 79C123.908 56.407 105.593 38.0918 83 38.0918C60.407 38.0918 42.0918 56.407 42.0918 79Z" fill="#C5F7E5"/>
<path fill-rule="evenodd" clip-rule="evenodd" d="M83.0002 94.8C91.7263 94.8 98.8002 87.7261 98.8002 79C98.8002 70.2739 91.7263 63.2 83.0002 63.2C74.2741 63.2 67.2002 70.2739 67.2002 79C67.2002 87.7261 74.2741 94.8 83.0002 94.8ZM90.9002 71.1H75.1002V86.9H90.9002V71.1Z" fill="#C5F7E5"/>
<path d="M74.8066 92.2857C69.7824 89.8803 63.5791 90.759 59.4163 94.9218C55.2573 99.0808 54.3764 105.277 56.7737 110.298C55.4294 109.655 54.1695 108.776 53.0558 107.662C47.7792 102.386 47.7792 93.8307 53.0558 88.5541C58.3323 83.2775 66.8874 83.2775 72.164 88.5541C73.2815 89.6717 74.1624 90.9363 74.8066 92.2857Z" fill="#C5F7E5"/>
<path d="M96.821 87.274C95.6379 92.6872 97.7943 98.3614 102.599 101.232C107.399 104.099 113.41 103.313 117.615 99.7154C117.298 101.163 116.743 102.593 115.935 103.945C112.108 110.351 104.069 112.595 97.9782 108.957C91.8876 105.319 90.0524 97.1759 93.8792 90.7697C94.6902 89.4121 95.6903 88.2414 96.821 87.274Z" fill="#C5F7E5"/>
<path d="M83.4733 59.8886C88.7326 61.7043 94.7564 60.147 98.3626 55.575C101.965 51.007 102.08 44.7932 99.097 40.1031C100.504 40.5888 101.856 41.3159 103.093 42.2913C108.952 46.9125 109.996 55.3567 105.425 61.1519C100.854 66.947 92.3992 67.8986 86.5402 63.2773C85.2994 62.2987 84.2746 61.1486 83.4733 59.8886Z" fill="#C5F7E5"/>
<path d="M75 59.5C75 65.8513 69.6274 71 63 71C56.3726 71 51 65.8513 51 59.5C51 53.1487 56.3726 48 63 48C69.6274 48 75 53.1487 75 59.5ZM52.3299 59.5C52.3299 65.1474 57.1071 69.7255 63 69.7255C68.893 69.7255 73.6701 65.1474 73.6701 59.5C73.6701 53.8526 68.893 49.2745 63 49.2745C57.1071 49.2745 52.3299 53.8526 52.3299 59.5Z" fill="#C5F7E5"/>
<path d="M68.999 59.5C68.999 62.8624 66.3132 65.5882 63 65.5882C59.6868 65.5882 57.001 62.8624 57.001 59.5C57.001 56.1376 59.6868 53.4118 63 53.4118C66.3132 53.4118 68.999 56.1376 68.999 59.5Z" fill="#FDF6A3"/>
<path d="M63.3948 71C63.21 71 63.0374 70.9071 62.9455 70.7443C62.6634 70.2449 62.1186 69.1212 62.4234 68.3486C62.6756 67.7095 63.693 67.5017 63.693 66.8454C63.693 66.189 62.4044 65.9984 62.4234 65.3421C62.4331 65.0041 62.7941 64.5645 62.9844 64.3556C63.0564 64.2766 63.1584 64.2353 63.2645 64.2353C63.6448 64.2353 63.821 64.7524 63.7136 65.1226C63.6916 65.1982 63.683 65.2724 63.693 65.3421C63.769 65.8694 64.7785 65.9517 64.9627 66.4696C65.2377 67.243 63.8969 67.5675 63.693 68.3486C63.5539 68.8816 63.7373 69.5687 63.9479 70.11C64.1057 70.5156 63.8246 71 63.3948 71Z" fill="#FDF6A3"/>
<path d="M62.6052 48C62.79 48 62.9626 48.0929 63.0545 48.2557C63.3366 48.7551 63.8814 49.8788 63.5766 50.6514C63.3244 51.2905 62.307 51.4983 62.307 52.1546C62.307 52.811 63.5956 53.0016 63.5766 53.6579C63.5669 53.9959 63.2059 54.4355 63.0156 54.6444C62.9436 54.7234 62.8416 54.7647 62.7355 54.7647C62.3552 54.7647 62.179 54.2476 62.2864 53.8774C62.3084 53.8018 62.317 53.7276 62.307 53.6579C62.231 53.1306 61.2215 53.0483 61.0373 52.5304C60.7623 51.757 62.1031 51.4325 62.307 50.6514C62.4461 50.1184 62.2627 49.4313 62.0521 48.89C61.8943 48.4844 62.1754 48 62.6052 48Z" fill="#FDF6A3"/>
<path d="M75 59.6836C75.0015 59.8712 74.9113 60.0471 74.7517 60.1417C74.2619 60.4319 73.159 60.9939 72.3953 60.6908C71.7635 60.44 71.5507 59.4091 70.904 59.4143C70.2572 59.4196 70.0797 60.7288 69.4329 60.7149C69.0998 60.7077 68.6638 60.3448 68.4565 60.1534C68.378 60.081 68.3365 59.9778 68.3356 59.8701C68.3326 59.4842 68.8407 59.3013 69.2064 59.4073C69.281 59.4289 69.3542 59.4371 69.4228 59.4264C69.9417 59.3451 70.0147 58.3199 70.5235 58.1289C71.2833 57.8436 71.6139 59.2017 72.3852 59.4023C72.9114 59.5392 73.587 59.3476 74.1186 59.1295C74.517 58.9661 74.9965 59.2475 75 59.6836Z" fill="#FDF6A3"/>
<path d="M67.0833 56.2509C66.9526 56.1183 66.8953 55.9287 66.9437 55.7477C67.0922 55.1921 67.4899 54.0065 68.2437 53.679C68.8674 53.408 69.7316 53.9912 70.1889 53.5271C70.6462 53.063 69.8679 52.0035 70.3385 51.553C70.5809 51.321 71.1425 51.2692 71.4225 51.2581C71.5286 51.2539 71.6294 51.2979 71.7044 51.374C71.9734 51.6469 71.7377 52.139 71.4037 52.3237C71.3356 52.3614 71.2778 52.4076 71.2363 52.4642C70.9226 52.8915 71.5791 53.6742 71.3485 54.1725C71.0041 54.9168 69.8299 54.1841 69.1415 54.5901C68.6718 54.8671 68.3227 55.4846 68.0945 56.0184C67.9235 56.4186 67.3872 56.5593 67.0833 56.2509Z" fill="#FDF6A3"/>
<path d="M54.1362 51.4676C54.2669 51.3349 54.4537 51.2768 54.6321 51.3259C55.1795 51.4766 56.3477 51.8802 56.6705 52.6452C56.9375 53.2781 56.3628 54.1552 56.8201 54.6193C57.2774 55.0834 58.3214 54.2935 58.7653 54.7712C58.9939 55.0172 59.0449 55.5871 59.0559 55.8713C59.06 55.9789 59.0167 56.0812 58.9417 56.1574C58.6727 56.4303 58.1879 56.1911 58.0059 55.8522C57.9687 55.783 57.9232 55.7244 57.8675 55.6823C57.4464 55.364 56.6752 56.0302 56.1842 55.7962C55.4508 55.4467 56.1728 54.2549 55.7727 53.5563C55.4997 53.0797 54.8913 52.7254 54.3653 52.4938C53.971 52.3202 53.8323 51.776 54.1362 51.4676Z" fill="#FDF6A3"/>
<path d="M70.5848 68.2021C70.4247 68.2959 70.2295 68.303 70.0697 68.2087C69.5794 67.9193 68.5538 67.2226 68.4372 66.3989C68.3407 65.7174 69.1195 65.0212 68.7961 64.4528C68.4728 63.8844 67.2629 64.3731 66.956 63.7952C66.7979 63.4975 66.894 62.9336 66.9558 62.6562C66.9792 62.5512 67.0472 62.4637 67.1391 62.4098C67.4685 62.2169 67.8758 62.5753 67.9652 62.9504C67.9835 63.027 68.0125 63.0956 68.0555 63.1509C68.3811 63.569 69.2959 63.1281 69.7105 63.4831C70.3298 64.0133 69.3285 64.9748 69.5368 65.7547C69.6789 66.2868 70.1762 66.7888 70.6253 67.1507C70.9618 67.4219 70.957 67.984 70.5848 68.2021Z" fill="#FDF6A3"/>
<path d="M55.0852 68.4274C54.9546 68.2948 54.8973 68.1052 54.9457 67.9242C55.0942 67.3686 55.4919 66.183 56.2456 65.8554C56.8693 65.5845 57.7335 66.1677 58.1908 65.7036C58.6481 65.2395 57.8698 64.18 58.3404 63.7295C58.5828 63.4975 59.1444 63.4457 59.4245 63.4346C59.5305 63.4303 59.6313 63.4743 59.7064 63.5505C59.9753 63.8234 59.7396 64.3154 59.4057 64.5002C59.3375 64.5379 59.2797 64.5841 59.2382 64.6406C58.9246 65.068 59.581 65.8507 59.3504 66.349C59.0061 67.0932 57.8318 66.3605 57.1434 66.7666C56.6737 67.0436 56.3246 67.6611 56.0964 68.1949C55.9254 68.595 55.3891 68.7358 55.0852 68.4274Z" fill="#FDF6A3"/>
<path d="M51 59.3164C50.9985 59.1288 51.0887 58.9529 51.2483 58.8583C51.7381 58.5681 52.841 58.0061 53.6047 58.3092C54.2365 58.56 54.4493 59.5909 55.096 59.5857C55.7428 59.5804 55.9203 58.2712 56.5671 58.2851C56.9002 58.2923 57.3362 58.6552 57.5435 58.8466C57.622 58.919 57.6635 59.0222 57.6644 59.1299C57.6674 59.5158 57.1593 59.6987 56.7936 59.5927C56.719 59.5711 56.6459 59.5629 56.5772 59.5736C56.0583 59.6549 55.9853 60.6801 55.4765 60.8711C54.7167 61.1564 54.3861 59.7983 53.6148 59.5977C53.0886 59.4608 52.413 59.6524 51.8814 59.8705C51.483 60.0339 51.0035 59.7525 51 59.3164Z" fill="#FDF6A3"/>
<path fill-rule="evenodd" clip-rule="evenodd" d="M80.1698 88.2759C79.8767 87.3416 78.5545 87.3416 78.2615 88.2759L74.6385 99.8257C74.5077 100.243 74.1213 100.526 73.6843 100.526L61.8872 100.526C60.927 100.526 60.5187 101.748 61.2859 102.325L70.8898 109.553C71.228 109.808 71.3693 110.247 71.2426 110.651L67.5887 122.3C67.2977 123.227 68.3674 123.983 69.1441 123.398L78.6143 116.271C78.9704 116.003 79.4608 116.003 79.8169 116.271L89.2871 123.398C90.0638 123.983 91.1335 123.227 90.8426 122.3L87.1886 110.651C87.0619 110.247 87.2032 109.808 87.5414 109.553L97.1454 102.325C97.9126 101.748 97.5042 100.526 96.544 100.526L84.7469 100.526C84.3099 100.526 83.9236 100.243 83.7928 99.8257L80.1698 88.2759ZM80.1255 104.122C79.8456 103.23 78.583 103.23 78.3032 104.122L78.0917 104.796C77.9668 105.194 77.5979 105.465 77.1806 105.465H76.4268C75.5099 105.465 75.1199 106.632 75.8526 107.183L76.5196 107.685C76.8425 107.928 76.9775 108.348 76.8565 108.734L76.6155 109.502C76.3376 110.388 77.3591 111.109 78.1008 110.551L78.6401 110.145C78.9802 109.889 79.4485 109.889 79.7885 110.145L80.3278 110.551C81.0695 111.109 82.091 110.388 81.8132 109.502L81.5722 108.734C81.4512 108.348 81.5861 107.928 81.9091 107.685L82.5761 107.183C83.3087 106.632 82.9188 105.465 82.0019 105.465H81.2481C80.8308 105.465 80.4618 105.194 80.3369 104.796L80.1255 104.122Z" fill="#C5F7E5"/>
<path fill-rule="evenodd" clip-rule="evenodd" d="M111.77 56.6759C111.477 55.7416 110.155 55.7416 109.862 56.6759L106.239 68.2257C106.108 68.6426 105.721 68.9264 105.284 68.9264L93.4873 68.9264C92.5271 68.9264 92.1188 70.148 92.886 70.7254L102.49 77.953C102.828 78.2075 102.969 78.6474 102.843 79.0513L99.1888 90.6998C98.8978 91.6273 99.9675 92.3827 100.744 91.7981L110.214 84.6712C110.57 84.4032 111.061 84.4032 111.417 84.6712L120.887 91.7981C121.664 92.3827 122.734 91.6273 122.443 90.6998L118.789 79.0513C118.662 78.6474 118.803 78.2075 119.142 77.953L128.745 70.7254C129.513 70.148 129.104 68.9264 128.144 68.9264L116.347 68.9264C115.91 68.9264 115.524 68.6426 115.393 68.2257L111.77 56.6759ZM111.726 72.5219C111.446 71.6298 110.183 71.6298 109.903 72.5219L109.692 73.1961C109.567 73.5942 109.198 73.8652 108.781 73.8652H108.027C107.11 73.8652 106.72 75.0317 107.453 75.5831L108.12 76.085C108.443 76.3281 108.578 76.7482 108.457 77.1339L108.216 77.9022C107.938 78.7879 108.959 79.5092 109.701 78.951L110.24 78.5452C110.58 78.2893 111.049 78.2893 111.389 78.5452L111.928 78.951C112.67 79.5092 113.691 78.7879 113.413 77.9022L113.172 77.1339C113.051 76.7482 113.186 76.3281 113.509 76.085L114.176 75.5831C114.909 75.0317 114.519 73.8652 113.602 73.8652H112.848C112.431 73.8652 112.062 73.5942 111.937 73.1961L111.726 72.5219Z" fill="#C5F7E5"/>
<path d="M75.1 23.5508C60.3661 25.6311 47.4749 33.4453 38.7562 44.6633L46.2896 49.0127C53.4012 40.317 63.5414 34.1945 75.1 32.2554V23.5508Z" stroke="#E0CB10" stroke-width="0.4" mask="url(#path-1-inside-1_164_2)"/>
<path d="M30.9159 58.3809C28.3875 64.7623 26.998 71.7189 26.998 79C26.998 86.5256 28.4824 93.7046 31.1744 100.26L38.715 95.9356C36.7026 90.6763 35.6 84.9669 35.6 79C35.6 73.287 36.6107 67.8101 38.4631 62.7383L30.9159 58.3809Z" stroke="#E0CB10" stroke-width="0.4" mask="url(#path-1-inside-1_164_2)"/>
<path d="M39.1841 113.88C47.8939 124.807 60.6053 132.403 75.1 134.449V125.745C63.7885 123.847 53.8355 117.943 46.7499 109.542L39.1841 113.88Z" stroke="#E0CB10" stroke-width="0.4" mask="url(#path-1-inside-1_164_2)"/>
<path d="M90.9 134.449C105.435 132.397 118.176 124.765 126.888 113.79L119.341 109.433C112.25 117.892 102.26 123.839 90.9 125.745V134.449Z" stroke="#E0CB10" stroke-width="0.4" mask="url(#path-1-inside-1_164_2)"/>
<path d="M134.869 100.154C137.534 93.6272 139.002 86.4851 139.002 79C139.002 71.8749 137.671 65.0607 135.245 58.7921L127.679 63.1314C129.441 68.0926 130.4 73.4343 130.4 79C130.4 84.9173 129.316 90.5813 127.335 95.8043L134.869 100.154Z" stroke="#E0CB10" stroke-width="0.4" mask="url(#path-1-inside-1_164_2)"/>
<path d="M127.513 45.0126C118.792 33.6076 105.786 25.6527 90.9 23.5508V32.2554C102.602 34.2185 112.849 40.4691 119.973 49.3366L127.513 45.0126Z" stroke="#E0CB10" stroke-width="0.4" mask="url(#path-1-inside-1_164_2)"/>
<path fill-rule="evenodd" clip-rule="evenodd" d="M67.2 7.9C67.2 3.53695 70.737 0 75.1 0H90.9C95.2631 0 98.8 3.53695 98.8 7.9V17.7911C104.599 19.2836 110.076 21.5784 115.105 24.5502L122.102 17.5528C125.187 14.4677 130.189 14.4677 133.274 17.5528L144.447 28.7251C147.532 31.8103 147.532 36.8123 144.447 39.8974L137.449 46.8946C140.421 51.924 142.716 57.4009 144.209 63.2H154.1C158.463 63.2 162 66.737 162 71.1V86.9C162 91.2631 158.463 94.8 154.1 94.8H144.209C142.716 100.599 140.421 106.076 137.449 111.105L144.447 118.103C147.532 121.188 147.532 126.19 144.447 129.275L133.275 140.448C130.19 143.533 125.188 143.533 122.102 140.448L115.105 133.45C110.076 136.422 104.599 138.716 98.8 140.209V150.1C98.8 154.463 95.2631 158 90.9 158H75.1C70.737 158 67.2 154.463 67.2 150.1V140.209C61.401 138.716 55.924 136.421 50.8946 133.449L43.8961 140.448C40.8109 143.533 35.8089 143.533 32.7238 140.448L21.5515 129.276C18.4664 126.191 18.4664 121.189 21.5515 118.103L28.5502 111.105C25.5784 106.076 23.2836 100.599 21.7911 94.8H11.9C7.53695 94.8 4 91.2631 4 86.9V71.1C4 66.7369 7.53695 63.2 11.9 63.2H21.7911C23.2836 57.4012 25.5784 51.9245 28.5502 46.8952L21.5519 39.8969C18.4667 36.8118 18.4667 31.8098 21.5519 28.7247L32.7242 17.5524C35.8093 14.4672 40.8113 14.4672 43.8964 17.5524L50.8946 24.5505C55.924 21.5786 61.4009 19.2836 67.2 17.7911V7.9ZM83 138.25C115.723 138.25 142.25 111.723 142.25 79C142.25 46.2771 115.723 19.75 83 19.75C50.2771 19.75 23.75 46.2771 23.75 79C23.75 111.723 50.2771 138.25 83 138.25Z" stroke="#E0CB10" stroke-width="0.4" mask="url(#path-1-inside-1_164_2)"/>
<path d="M130 79C130 104.957 108.957 126 83 126C57.0426 126 36 104.957 36 79C36 53.0426 57.0426 32 83 32C108.957 32 130 53.0426 130 79ZM42.0918 79C42.0918 101.593 60.407 119.908 83 119.908C105.593 119.908 123.908 101.593 123.908 79C123.908 56.407 105.593 38.0918 83 38.0918C60.407 38.0918 42.0918 56.407 42.0918 79Z" stroke="#E0CB10" stroke-width="0.4" mask="url(#path-1-inside-1_164_2)"/>
<path fill-rule="evenodd" clip-rule="evenodd" d="M83.0002 94.8C91.7263 94.8 98.8002 87.7261 98.8002 79C98.8002 70.2739 91.7263 63.2 83.0002 63.2C74.2741 63.2 67.2002 70.2739 67.2002 79C67.2002 87.7261 74.2741 94.8 83.0002 94.8ZM90.9002 71.1H75.1002V86.9H90.9002V71.1Z" stroke="#E0CB10" stroke-width="0.4" mask="url(#path-1-inside-1_164_2)"/>
<path d="M74.8066 92.2857C69.7824 89.8803 63.5791 90.759 59.4163 94.9218C55.2573 99.0808 54.3764 105.277 56.7737 110.298C55.4294 109.655 54.1695 108.776 53.0558 107.662C47.7792 102.386 47.7792 93.8307 53.0558 88.5541C58.3323 83.2775 66.8874 83.2775 72.164 88.5541C73.2815 89.6717 74.1624 90.9363 74.8066 92.2857Z" stroke="#E0CB10" stroke-width="0.4" mask="url(#path-1-inside-1_164_2)"/>
<path d="M96.821 87.274C95.6379 92.6872 97.7943 98.3614 102.599 101.232C107.399 104.099 113.41 103.313 117.615 99.7154C117.298 101.163 116.743 102.593 115.935 103.945C112.108 110.351 104.069 112.595 97.9782 108.957C91.8876 105.319 90.0524 97.1759 93.8792 90.7697C94.6902 89.4121 95.6903 88.2414 96.821 87.274Z" stroke="#E0CB10" stroke-width="0.4" mask="url(#path-1-inside-1_164_2)"/>
<path d="M83.4733 59.8886C88.7326 61.7043 94.7564 60.147 98.3626 55.575C101.965 51.007 102.08 44.7932 99.097 40.1031C100.504 40.5888 101.856 41.3159 103.093 42.2913C108.952 46.9125 109.996 55.3567 105.425 61.1519C100.854 66.947 92.3992 67.8986 86.5402 63.2773C85.2994 62.2987 84.2746 61.1486 83.4733 59.8886Z" stroke="#E0CB10" stroke-width="0.4" mask="url(#path-1-inside-1_164_2)"/>
<path d="M75 59.5C75 65.8513 69.6274 71 63 71C56.3726 71 51 65.8513 51 59.5C51 53.1487 56.3726 48 63 48C69.6274 48 75 53.1487 75 59.5ZM52.3299 59.5C52.3299 65.1474 57.1071 69.7255 63 69.7255C68.893 69.7255 73.6701 65.1474 73.6701 59.5C73.6701 53.8526 68.893 49.2745 63 49.2745C57.1071 49.2745 52.3299 53.8526 52.3299 59.5Z" stroke="#E0CB10" stroke-width="0.4" mask="url(#path-1-inside-1_164_2)"/>
<path d="M68.999 59.5C68.999 62.8624 66.3132 65.5882 63 65.5882C59.6868 65.5882 57.001 62.8624 57.001 59.5C57.001 56.1376 59.6868 53.4118 63 53.4118C66.3132 53.4118 68.999 56.1376 68.999 59.5Z" stroke="#E0CB10" stroke-width="0.4" mask="url(#path-1-inside-1_164_2)"/>
<path d="M63.3948 71C63.21 71 63.0374 70.9071 62.9455 70.7443C62.6634 70.2449 62.1186 69.1212 62.4234 68.3486C62.6756 67.7095 63.693 67.5017 63.693 66.8454C63.693 66.189 62.4044 65.9984 62.4234 65.3421C62.4331 65.0041 62.7941 64.5645 62.9844 64.3556C63.0564 64.2766 63.1584 64.2353 63.2645 64.2353C63.6448 64.2353 63.821 64.7524 63.7136 65.1226C63.6916 65.1982 63.683 65.2724 63.693 65.3421C63.769 65.8694 64.7785 65.9517 64.9627 66.4696C65.2377 67.243 63.8969 67.5675 63.693 68.3486C63.5539 68.8816 63.7373 69.5687 63.9479 70.11C64.1057 70.5156 63.8246 71 63.3948 71Z" stroke="#E0CB10" stroke-width="0.4" mask="url(#path-1-inside-1_164_2)"/>
<path d="M62.6052 48C62.79 48 62.9626 48.0929 63.0545 48.2557C63.3366 48.7551 63.8814 49.8788 63.5766 50.6514C63.3244 51.2905 62.307 51.4983 62.307 52.1546C62.307 52.811 63.5956 53.0016 63.5766 53.6579C63.5669 53.9959 63.2059 54.4355 63.0156 54.6444C62.9436 54.7234 62.8416 54.7647 62.7355 54.7647C62.3552 54.7647 62.179 54.2476 62.2864 53.8774C62.3084 53.8018 62.317 53.7276 62.307 53.6579C62.231 53.1306 61.2215 53.0483 61.0373 52.5304C60.7623 51.757 62.1031 51.4325 62.307 50.6514C62.4461 50.1184 62.2627 49.4313 62.0521 48.89C61.8943 48.4844 62.1754 48 62.6052 48Z" stroke="#E0CB10" stroke-width="0.4" mask="url(#path-1-inside-1_164_2)"/>
<path d="M75 59.6836C75.0015 59.8712 74.9113 60.0471 74.7517 60.1417C74.2619 60.4319 73.159 60.9939 72.3953 60.6908C71.7635 60.44 71.5507 59.4091 70.904 59.4143C70.2572 59.4196 70.0797 60.7288 69.4329 60.7149C69.0998 60.7077 68.6638 60.3448 68.4565 60.1534C68.378 60.081 68.3365 59.9778 68.3356 59.8701C68.3326 59.4842 68.8407 59.3013 69.2064 59.4073C69.281 59.4289 69.3542 59.4371 69.4228 59.4264C69.9417 59.3451 70.0147 58.3199 70.5235 58.1289C71.2833 57.8436 71.6139 59.2017 72.3852 59.4023C72.9114 59.5392 73.587 59.3476 74.1186 59.1295C74.517 58.9661 74.9965 59.2475 75 59.6836Z" stroke="#E0CB10" stroke-width="0.4" mask="url(#path-1-inside-1_164_2)"/>
<path d="M67.0833 56.2509C66.9526 56.1183 66.8953 55.9287 66.9437 55.7477C67.0922 55.1921 67.4899 54.0065 68.2437 53.679C68.8674 53.408 69.7316 53.9912 70.1889 53.5271C70.6462 53.063 69.8679 52.0035 70.3385 51.553C70.5809 51.321 71.1425 51.2692 71.4225 51.2581C71.5286 51.2539 71.6294 51.2979 71.7044 51.374C71.9734 51.6469 71.7377 52.139 71.4037 52.3237C71.3356 52.3614 71.2778 52.4076 71.2363 52.4642C70.9226 52.8915 71.5791 53.6742 71.3485 54.1725C71.0041 54.9168 69.8299 54.1841 69.1415 54.5901C68.6718 54.8671 68.3227 55.4846 68.0945 56.0184C67.9235 56.4186 67.3872 56.5593 67.0833 56.2509Z" stroke="#E0CB10" stroke-width="0.4" mask="url(#path-1-inside-1_164_2)"/>
<path d="M54.1362 51.4676C54.2669 51.3349 54.4537 51.2768 54.6321 51.3259C55.1795 51.4766 56.3477 51.8802 56.6705 52.6452C56.9375 53.2781 56.3628 54.1552 56.8201 54.6193C57.2774 55.0834 58.3214 54.2935 58.7653 54.7712C58.9939 55.0172 59.0449 55.5871 59.0559 55.8713C59.06 55.9789 59.0167 56.0812 58.9417 56.1574C58.6727 56.4303 58.1879 56.1911 58.0059 55.8522C57.9687 55.783 57.9232 55.7244 57.8675 55.6823C57.4464 55.364 56.6752 56.0302 56.1842 55.7962C55.4508 55.4467 56.1728 54.2549 55.7727 53.5563C55.4997 53.0797 54.8913 52.7254 54.3653 52.4938C53.971 52.3202 53.8323 51.776 54.1362 51.4676Z" stroke="#E0CB10" stroke-width="0.4" mask="url(#path-1-inside-1_164_2)"/>
<path d="M70.5848 68.2021C70.4247 68.2959 70.2295 68.303 70.0697 68.2087C69.5794 67.9193 68.5538 67.2226 68.4372 66.3989C68.3407 65.7174 69.1195 65.0212 68.7961 64.4528C68.4728 63.8844 67.2629 64.3731 66.956 63.7952C66.7979 63.4975 66.894 62.9336 66.9558 62.6562C66.9792 62.5512 67.0472 62.4637 67.1391 62.4098C67.4685 62.2169 67.8758 62.5753 67.9652 62.9504C67.9835 63.027 68.0125 63.0956 68.0555 63.1509C68.3811 63.569 69.2959 63.1281 69.7105 63.4831C70.3298 64.0133 69.3285 64.9748 69.5368 65.7547C69.6789 66.2868 70.1762 66.7888 70.6253 67.1507C70.9618 67.4219 70.957 67.984 70.5848 68.2021Z" stroke="#E0CB10" stroke-width="0.4" mask="url(#path-1-inside-1_164_2)"/>
<path d="M55.0852 68.4274C54.9546 68.2948 54.8973 68.1052 54.9457 67.9242C55.0942 67.3686 55.4919 66.183 56.2456 65.8554C56.8693 65.5845 57.7335 66.1677 58.1908 65.7036C58.6481 65.2395 57.8698 64.18 58.3404 63.7295C58.5828 63.4975 59.1444 63.4457 59.4245 63.4346C59.5305 63.4303 59.6313 63.4743 59.7064 63.5505C59.9753 63.8234 59.7396 64.3154 59.4057 64.5002C59.3375 64.5379 59.2797 64.5841 59.2382 64.6406C58.9246 65.068 59.581 65.8507 59.3504 66.349C59.0061 67.0932 57.8318 66.3605 57.1434 66.7666C56.6737 67.0436 56.3246 67.6611 56.0964 68.1949C55.9254 68.595 55.3891 68.7358 55.0852 68.4274Z" stroke="#E0CB10" stroke-width="0.4" mask="url(#path-1-inside-1_164_2)"/>
<path d="M51 59.3164C50.9985 59.1288 51.0887 58.9529 51.2483 58.8583C51.7381 58.5681 52.841 58.0061 53.6047 58.3092C54.2365 58.56 54.4493 59.5909 55.096 59.5857C55.7428 59.5804 55.9203 58.2712 56.5671 58.2851C56.9002 58.2923 57.3362 58.6552 57.5435 58.8466C57.622 58.919 57.6635 59.0222 57.6644 59.1299C57.6674 59.5158 57.1593 59.6987 56.7936 59.5927C56.719 59.5711 56.6459 59.5629 56.5772 59.5736C56.0583 59.6549 55.9853 60.6801 55.4765 60.8711C54.7167 61.1564 54.3861 59.7983 53.6148 59.5977C53.0886 59.4608 52.413 59.6524 51.8814 59.8705C51.483 60.0339 51.0035 59.7525 51 59.3164Z" stroke="#E0CB10" stroke-width="0.4" mask="url(#path-1-inside-1_164_2)"/>
<path fill-rule="evenodd" clip-rule="evenodd" d="M80.1698 88.2759C79.8767 87.3416 78.5545 87.3416 78.2615 88.2759L74.6385 99.8257C74.5077 100.243 74.1213 100.526 73.6843 100.526L61.8872 100.526C60.927 100.526 60.5187 101.748 61.2859 102.325L70.8898 109.553C71.228 109.808 71.3693 110.247 71.2426 110.651L67.5887 122.3C67.2977 123.227 68.3674 123.983 69.1441 123.398L78.6143 116.271C78.9704 116.003 79.4608 116.003 79.8169 116.271L89.2871 123.398C90.0638 123.983 91.1335 123.227 90.8426 122.3L87.1886 110.651C87.0619 110.247 87.2032 109.808 87.5414 109.553L97.1454 102.325C97.9126 101.748 97.5042 100.526 96.544 100.526L84.7469 100.526C84.3099 100.526 83.9236 100.243 83.7928 99.8257L80.1698 88.2759ZM80.1255 104.122C79.8456 103.23 78.583 103.23 78.3032 104.122L78.0917 104.796C77.9668 105.194 77.5979 105.465 77.1806 105.465H76.4268C75.5099 105.465 75.1199 106.632 75.8526 107.183L76.5196 107.685C76.8425 107.928 76.9775 108.348 76.8565 108.734L76.6155 109.502C76.3376 110.388 77.3591 111.109 78.1008 110.551L78.6401 110.145C78.9802 109.889 79.4485 109.889 79.7885 110.145L80.3278 110.551C81.0695 111.109 82.091 110.388 81.8132 109.502L81.5722 108.734C81.4512 108.348 81.5861 107.928 81.9091 107.685L82.5761 107.183C83.3087 106.632 82.9188 105.465 82.0019 105.465H81.2481C80.8308 105.465 80.4618 105.194 80.3369 104.796L80.1255 104.122Z" stroke="#E0CB10" stroke-width="0.4" mask="url(#path-1-inside-1_164_2)"/>
<path fill-rule="evenodd" clip-rule="evenodd" d="M111.77 56.6759C111.477 55.7416 110.155 55.7416 109.862 56.6759L106.239 68.2257C106.108 68.6426 105.721 68.9264 105.284 68.9264L93.4873 68.9264C92.5271 68.9264 92.1188 70.148 92.886 70.7254L102.49 77.953C102.828 78.2075 102.969 78.6474 102.843 79.0513L99.1888 90.6998C98.8978 91.6273 99.9675 92.3827 100.744 91.7981L110.214 84.6712C110.57 84.4032 111.061 84.4032 111.417 84.6712L120.887 91.7981C121.664 92.3827 122.734 91.6273 122.443 90.6998L118.789 79.0513C118.662 78.6474 118.803 78.2075 119.142 77.953L128.745 70.7254C129.513 70.148 129.104 68.9264 128.144 68.9264L116.347 68.9264C115.91 68.9264 115.524 68.6426 115.393 68.2257L111.77 56.6759ZM111.726 72.5219C111.446 71.6298 110.183 71.6298 109.903 72.5219L109.692 73.1961C109.567 73.5942 109.198 73.8652 108.781 73.8652H108.027C107.11 73.8652 106.72 75.0317 107.453 75.5831L108.12 76.085C108.443 76.3281 108.578 76.7482 108.457 77.1339L108.216 77.9022C107.938 78.7879 108.959 79.5092 109.701 78.951L110.24 78.5452C110.58 78.2893 111.049 78.2893 111.389 78.5452L111.928 78.951C112.67 79.5092 113.691 78.7879 113.413 77.9022L113.172 77.1339C113.051 76.7482 113.186 76.3281 113.509 76.085L114.176 75.5831C114.909 75.0317 114.519 73.8652 113.602 73.8652H112.848C112.431 73.8652 112.062 73.5942 111.937 73.1961L111.726 72.5219Z" stroke="#E0CB10" stroke-width="0.4" mask="url(#path-1-inside-1_164_2)"/>
</g>
<defs>
<filter id="filter0_d_164_2" x="0" y="0" width="166" height="166" filterUnits="userSpaceOnUse" color-interpolation-filters="sRGB">
<feFlood flood-opacity="0" result="BackgroundImageFix"/>
<feColorMatrix in="SourceAlpha" type="matrix" values="0 0 0 0 0 0 0 0 0 0 0 0 0 0 0 0 0 0 127 0" result="hardAlpha"/>
<feOffset dy="4"/>
<feGaussianBlur stdDeviation="2"/>
<feComposite in2="hardAlpha" operator="out"/>
<feColorMatrix type="matrix" values="0 0 0 0 0 0 0 0 0 0 0 0 0 0 0 0 0 0 0.25 0"/>
<feBlend mode="normal" in2="BackgroundImageFix" result="effect1_dropShadow_164_2"/>
<feBlend mode="normal" in="SourceGraphic" in2="effect1_dropShadow_164_2" result="shape"/>
</filter>
</defs>
</svg>
