<svg width="100" height="100" viewBox="0 0 100 100" fill="none" xmlns="http://www.w3.org/2000/svg">
<g clip-path="url(#clip0_3330_2)">
<rect width="100" height="100" fill="white"/>
<path d="M65.5113 29.7455L68.2048 32.5212C68.5741 32.9017 68.565 33.5094 68.1845 33.8787L67.453 34.5885C67.0725 34.9577 66.4648 34.9486 66.0955 34.5681L63.402 31.7924C63.0327 31.4119 63.0419 30.8042 63.4223 30.4349L64.1538 29.7251C64.5343 29.3559 65.1421 29.365 65.5113 29.7455ZM67.6528 27.6082L70.1181 30.1486C70.4873 30.5291 70.4782 31.1369 70.0977 31.5061L69.5479 32.0396C69.1674 32.4089 68.5596 32.3998 68.1904 32.0193L65.7251 29.4788C65.3559 29.0983 65.365 28.4906 65.7455 28.1213L66.2953 27.5878C66.6758 27.2186 67.2835 27.2277 67.6528 27.6082ZM72.2306 21.9012L75.0044 24.7595C75.3736 25.14 75.3645 25.7478 74.984 26.117L74.8564 26.2409C74.4759 26.6101 73.8681 26.601 73.4989 26.2205L70.7251 23.3622C70.3559 22.9817 70.365 22.3739 70.7455 22.0047L70.8731 21.8808C71.2536 21.5116 71.8614 21.5207 72.2306 21.9012ZM70.6669 23.5945L73.3605 26.3702C73.7297 26.7507 73.7206 27.3584 73.3401 27.7277L73.1174 27.9437C72.7369 28.313 72.1292 28.3038 71.7599 27.9233L69.0664 25.1477C68.6971 24.7672 68.7063 24.1594 69.0867 23.7902L69.3094 23.5741C69.6899 23.2049 70.2977 23.214 70.6669 23.5945ZM69.3843 25.8687L71.6405 28.1937C72.0098 28.5742 72.0006 29.182 71.6201 29.5512L71.4799 29.6873C71.0994 30.0566 70.4916 30.0474 70.1224 29.667L67.8662 27.342C67.4969 26.9615 67.5061 26.3537 67.8866 25.9845L68.0268 25.8484C68.4073 25.4791 69.0151 25.4883 69.3843 25.8687Z" fill="#DFDEBB" stroke="black" stroke-width="0.08"/>
<path d="M54.5 52.5001L53 52.0001C53 52.0001 51.3219 51.3377 50 51C49.4825 50.8678 47.5979 50.2657 47 50C46.0706 49.5869 45.5 49.5 45.5 49.5L38.5 44.5L34.5 39L33 36V28.5L34 26.5L26 22.5L30 14L38 18L38.5 17C38.5 17 38.6667 16 39 15.5L40 14L42.5 12L44 11L47.5 9.5H60L61 9L62.5 9L63.5 9.5L64 10L65 10.5L66 12L67 12.5L67.5 13H68L69 13.5L70 13.5C70 13.5 70.5 13.5 71 14L71.5 14.5H72.5L74 16V17.5L73.5 18V18.5L72.5 19.5L72.5 21.5C72.5 21.5 72.738 21.9127 73 22C73.1852 22.0618 73.3254 21.9127 73.5 22C73.8493 22.1746 73.5 23 73.5 23L73 23.5L72.5 23.5L72 24V26L70.5 26L70.5 27.5L69 28V29L68 29L68 30.5L66.5 30.5L66 31L66.5 32.5L65.5 33V34.5L64.5 35L65 36L64 36.5L63.5 37L63 37L62 36.5L61 35.5L60 35L58.5 35L58 35.5L56.5 36.5L55.5 37.5L55 39.5L57 41.5L58 43L58 45.0001L57.5 46.5001L57 48.5001V51.5001L56.5 52.5001H54.5Z" fill="#DFDEBB"/>
<path d="M59 15.5C60 15.5 60.5 15 61 15L61.5 15C61.8905 15 62.1507 14.8254 62.5 15C62.747 15.1235 63 15.5 63 15.5C63 15.5 63.238 15.9127 63.5 16C63.6853 16.0617 64 16 64 16H64.5C64.5 16 65 16 65.5 15.5C65.5 15.5 66 15 67 15.5C67.2798 15.6399 67.5 15.5 67.5 15.5C67.5 15.5 68 15 68 14.5C68 14.5 68.0618 14.1852 68 14C67.9127 13.738 67.5 13.5 67.5 13.5C67.5 13.5 67.218 13.1695 67 13C66.6554 12.7319 67 13 66 12.5C65 12 65.5 11 64.5 10.5C63.5 10 63 9.5 62 9.5C60.5 9.5 61 9.5 60 10C59 10.5 58.5 11 58.5 11L57.5 12C57.5 12 57.0947 12.5738 57 13C56.9153 13.3812 57 14 57 14C57 14 57.1913 14.6913 57.5 15C57.9366 15.4366 58.117 15.5 59 15.5Z" fill="black"/>
<path d="M65 23C65 23 65.5 23 64.5 23.5C63.5 24 63 22.5 63 22.5L61.5 21C61.5 21 61 21.2071 61 20.5C61 20 60.5 19 60.5 19L60 18.5C60 18.5 59.5873 18.262 59.5 18C59.4383 17.8148 59.5 17.5 59.5 17.5H60.5C60.5 17.5 60.8067 17.4724 61 17.5C61.4322 17.5617 62 18 62 18H62.5C62.5 18 62.8148 17.9383 63 18C63.262 18.0873 63.5 18.5 63.5 18.5L64 19C64 19 64.3148 18.9383 64.5 19C64.762 19.0873 65 19.5 65 19.5H66C66 19.5 67.5 20.2239 67.5 20.5C67.5 20.7761 67 21 67 21L66.5 21L65.5 20.5H65V21H64.5V21.5L65 23Z" fill="black"/>
<path d="M47.5 23.5C47.5 23.5 46.5 24.5 47 26.5C47.1059 26.9236 47.5 27.5 47.5 27.5L49 29C49 29 49.5738 29.4053 50 29.5C50.3812 29.5847 51 29.5 51 29.5L52 29C52 29 53.0853 28.569 53.5 28C53.8637 27.501 53.6295 26.994 54 26.5C54.1657 26.2791 54.3305 26.218 54.5 26C54.7681 25.6554 54.6913 25.3087 55 25C55.3087 24.6913 55.6913 24.8087 56 24.5C56.3087 24.1913 56.5 23.5 56.5 23.5C56.5 23.5 57 23 57 22.5C57 22 57.1747 21.8493 57 21.5C56.8765 21.253 56.5 21 56.5 21C56.5 21 56.247 20.6235 56 20.5C55.6507 20.3254 55 20.5 55 20.5H54.5C54.1095 20.5 53.8493 20.6747 53.5 20.5C53.253 20.3765 53 20 53 20C53 20 53 19.75 52.5 19.5C52.1507 19.3254 52 19.5 51.5 19.5C51.1095 19.5 50.8493 19.3254 50.5 19.5C50.253 19.6235 50 20 50 20L49.5 20.5L47.5 23.5Z" fill="black"/>
<path d="M25.9261 22.4749L30.1545 14M53 52.0001L54.5 52.5001H56.5L57 51.5001V48.5001L57.5 46.5001L58 45.0001L58 43L57 41.5L55 39.5L55.5 37.5L56.5 36.5L58 35.5L58.5 35L60 35L61 35.5L62 36.5L63 37L63.5 37L64 36.5L65 36L64.5 35L65.5 34.5V33L66.5 32.5L66 31L66.5 30.5L68 30.5L68 29L69 29V28L70.5 27.5L70.5 26L72 26V24L72.5 23.5L73 23.5L73.5 23C73.5 23 73.8493 22.1746 73.5 22C73.3254 21.9127 73.1852 22.0618 73 22C72.738 21.9127 72.5 21.5 72.5 21.5L72.5 19.5L73.5 18.5V18L74 17.5V16L72.5 14.5H71.5L71 14C70.5 13.5 70 13.5 70 13.5L69 13.5L68 13H67.5L67 12.5L66 12L65 10.5L64 10L63.5 9.5L62.5 9L61 9L60 9.5H47.5L44 11L42.5 12L40 14L39 15.5C38.6667 16 38.5 17 38.5 17L38 18L30 14L26 22.5L34 26.5L33 28.5V36L34.5 39L38.5 44.5L45.5 49.5C45.5 49.5 46.0706 49.5869 47 50C47.5979 50.2657 49.4825 50.8678 50 51C51.3219 51.3377 53 52.0001 53 52.0001ZM61 15C60.5 15 60 15.5 59 15.5C58.117 15.5 57.9366 15.4366 57.5 15C57.1913 14.6913 57 14 57 14C57 14 56.9153 13.3812 57 13C57.0947 12.5738 57.5 12 57.5 12L58.5 11C58.5 11 59 10.5 60 10C61 9.5 60.5 9.5 62 9.5C63 9.5 63.5 10 64.5 10.5C65.5 11 65 12 66 12.5C67 13 66.6554 12.7319 67 13C67.218 13.1695 67.5 13.5 67.5 13.5C67.5 13.5 67.9127 13.738 68 14C68.0618 14.1852 68 14.5 68 14.5C68 15 67.5 15.5 67.5 15.5C67.5 15.5 67.2798 15.6399 67 15.5C66 15 65.5 15.5 65.5 15.5C65 16 64.5 16 64.5 16H64C64 16 63.6853 16.0617 63.5 16C63.238 15.9127 63 15.5 63 15.5C63 15.5 62.747 15.1235 62.5 15C62.1507 14.8254 61.8905 15 61.5 15L61 15ZM64.5 23.5C65.5 23 65 23 65 23L64.5 21.5V21H65V20.5H65.5L66.5 21L67 21C67 21 67.5 20.7761 67.5 20.5C67.5 20.2239 66 19.5 66 19.5H65C65 19.5 64.762 19.0873 64.5 19C64.3148 18.9383 64 19 64 19L63.5 18.5C63.5 18.5 63.262 18.0873 63 18C62.8148 17.9383 62.5 18 62.5 18H62C62 18 61.4322 17.5617 61 17.5C60.8067 17.4724 60.5 17.5 60.5 17.5H59.5C59.5 17.5 59.4383 17.8148 59.5 18C59.5873 18.262 60 18.5 60 18.5L60.5 19C60.5 19 61 20 61 20.5C61 21.2071 61.5 21 61.5 21L63 22.5C63 22.5 63.5 24 64.5 23.5ZM47 26.5C46.5 24.5 47.5 23.5 47.5 23.5L49.5 20.5L50 20C50 20 50.253 19.6235 50.5 19.5C50.8493 19.3254 51.1095 19.5 51.5 19.5C52 19.5 52.1507 19.3254 52.5 19.5C53 19.75 53 20 53 20C53 20 53.253 20.3765 53.5 20.5C53.8493 20.6747 54.1095 20.5 54.5 20.5H55C55 20.5 55.6507 20.3254 56 20.5C56.247 20.6235 56.5 21 56.5 21C56.5 21 56.8765 21.253 57 21.5C57.1747 21.8493 57 22 57 22.5C57 23 56.5 23.5 56.5 23.5C56.5 23.5 56.3087 24.1913 56 24.5C55.6913 24.8087 55.3087 24.6913 55 25C54.6913 25.3087 54.7681 25.6554 54.5 26C54.3305 26.218 54.1657 26.2791 54 26.5C53.6295 26.994 53.8637 27.501 53.5 28C53.0853 28.569 52 29 52 29L51 29.5C51 29.5 50.3812 29.5847 50 29.5C49.5738 29.4053 49 29 49 29L47.5 27.5C47.5 27.5 47.1059 26.9236 47 26.5Z" stroke="black" stroke-width="0.09"/>
<g filter="url(#filter0_d_3330_2)">
<path d="M36.6738 89.2619C36.3662 89.2619 36.2033 89.2438 36.1852 89.2076C36.1762 89.1895 36.1717 89.1533 36.1717 89.099C36.1717 88.8818 36.2214 88.7325 36.321 88.6511C36.339 88.642 36.416 88.6375 36.5517 88.6375C36.9227 88.6556 37.538 88.6647 38.3976 88.6647C38.7052 88.6647 38.9903 88.6647 39.2527 88.6647C39.5151 88.6647 39.7187 88.6601 39.8635 88.6511C40.0082 88.642 40.0987 88.642 40.1349 88.6511C40.2797 88.6511 40.3521 88.6963 40.3521 88.7868C40.3521 88.8049 40.343 88.8683 40.3249 88.9768C40.2797 89.1307 40.2344 89.2211 40.1892 89.2483H40.1621C40.144 89.2483 40.1213 89.2483 40.0942 89.2483C40.067 89.2483 40.0354 89.2483 39.9992 89.2483C39.963 89.2483 39.9223 89.2528 39.877 89.2619C39.8318 89.2709 39.7911 89.2709 39.7549 89.2619C39.402 89.2709 39.1758 89.2845 39.0762 89.3026C38.9767 89.3207 38.8953 89.3704 38.8319 89.4519C38.8048 89.4881 38.66 90.0446 38.3976 91.1213C38.3343 91.3566 38.2664 91.619 38.194 91.9086C38.1216 92.1981 38.0673 92.4108 38.0311 92.5465L37.9768 92.7501C37.9768 92.7682 38.6329 92.7772 39.9449 92.7772H41.913L41.9265 92.7365C41.9265 92.7094 42.0668 92.1529 42.3473 91.067C42.6006 90.0265 42.7273 89.47 42.7273 89.3976C42.7273 89.3252 42.4694 89.28 41.9537 89.2619C41.7456 89.2619 41.6098 89.2528 41.5465 89.2347C41.4831 89.2166 41.4515 89.1759 41.4515 89.1126C41.4515 89.0945 41.4605 89.0402 41.4786 88.9497C41.5148 88.7959 41.542 88.7099 41.5601 88.6918C41.5782 88.6737 41.6505 88.6601 41.7772 88.6511C41.8225 88.6511 42.0125 88.6556 42.3473 88.6647C42.6821 88.6737 43.1074 88.6782 43.6231 88.6782C44.1841 88.6782 44.6139 88.6737 44.9125 88.6647C45.2111 88.6556 45.374 88.6511 45.4012 88.6511C45.555 88.6511 45.6319 88.6963 45.6319 88.7868C45.6319 89.0311 45.5776 89.1849 45.469 89.2483H45.4419C45.4238 89.2483 45.4012 89.2483 45.374 89.2483C45.3469 89.2483 45.3152 89.2483 45.279 89.2483C45.2428 89.2483 45.2021 89.2528 45.1569 89.2619C45.1116 89.2709 45.0709 89.2709 45.0347 89.2619C44.6818 89.2709 44.4556 89.2845 44.3561 89.3026C44.2565 89.3207 44.1751 89.3704 44.1117 89.4519C44.0846 89.4971 43.7589 90.7775 43.1345 93.293C42.5102 95.8085 42.1935 97.0843 42.1844 97.1205C42.1844 97.1839 42.2025 97.2155 42.2387 97.2155C42.3111 97.2427 42.5554 97.2653 42.9716 97.2834H43.3924C43.4467 97.3558 43.4738 97.3965 43.4738 97.4056C43.4738 97.4146 43.4603 97.496 43.4331 97.6499C43.3969 97.7675 43.3517 97.8535 43.2974 97.9077H43.0938C42.759 97.8896 42.1527 97.8806 41.275 97.8806C40.9674 97.8806 40.6823 97.8806 40.4199 97.8806C40.1575 97.8806 39.9494 97.8806 39.7956 97.8806C39.6418 97.8806 39.5468 97.8851 39.5106 97.8942C39.3567 97.8942 39.2798 97.8535 39.2798 97.772C39.2798 97.7268 39.2934 97.6634 39.3205 97.582C39.3658 97.4101 39.411 97.3151 39.4563 97.297C39.4925 97.2879 39.5603 97.2834 39.6599 97.2834H39.7413C39.9856 97.2834 40.2571 97.2698 40.5557 97.2427C40.61 97.2336 40.6462 97.2291 40.6643 97.2291C40.6823 97.2291 40.7095 97.2065 40.7457 97.1612C40.7819 97.116 40.809 97.0753 40.8271 97.0391C40.8452 97.0029 40.8724 96.9215 40.9086 96.7948C40.9448 96.6681 40.9764 96.5414 41.0036 96.4147C41.0307 96.2881 41.0805 96.0935 41.1529 95.8311C41.2162 95.5777 41.266 95.3742 41.3022 95.2203C41.6008 94.0259 41.7501 93.4242 41.7501 93.4151C41.7501 93.4061 41.0941 93.4016 39.782 93.4016H37.814L37.3661 95.2339C37.0584 96.4464 36.9046 97.0753 36.9046 97.1205C36.9046 97.1839 36.9408 97.2246 37.0132 97.2427C37.0856 97.2608 37.3118 97.2743 37.6918 97.2834H38.1126C38.1669 97.3558 38.194 97.3965 38.194 97.4056C38.194 97.4146 38.1804 97.496 38.1533 97.6499C38.1171 97.7675 38.0718 97.8535 38.0176 97.9077H37.814C37.4792 97.8896 36.8729 97.8806 35.9952 97.8806C35.6876 97.8806 35.4025 97.8806 35.1401 97.8806C34.8777 97.8806 34.6696 97.8806 34.5158 97.8806C34.3619 97.8806 34.2669 97.8851 34.2307 97.8942C34.0769 97.8942 34 97.8535 34 97.772C34 97.7539 34.0136 97.6906 34.0407 97.582C34.086 97.4101 34.1312 97.3151 34.1764 97.297C34.2126 97.2879 34.2805 97.2834 34.38 97.2834H34.4615C34.7058 97.2834 34.9772 97.2698 35.2758 97.2427C35.4025 97.2155 35.4885 97.1612 35.5337 97.0798C35.5609 97.0436 35.8866 95.7859 36.511 93.3066C37.1353 90.8273 37.4475 89.5197 37.4475 89.384C37.4475 89.3207 37.1896 89.28 36.6738 89.2619Z" fill="#953D0F"/>
<path d="M38.6799 86.8188L40.5394 85L40.648 85.1086C41.8243 86.2306 42.4124 86.8007 42.4124 86.8188L42.0595 87.2124C42.0414 87.2033 41.779 86.9771 41.2723 86.5337L40.553 85.9094L39.8065 86.5473C39.6888 86.6468 39.5712 86.7509 39.4536 86.8595C39.3359 86.9681 39.2409 87.054 39.1685 87.1174L39.0599 87.1988C39.0418 87.2169 38.974 87.1535 38.8564 87.0088L38.6799 86.8188Z" fill="#953D0F"/>
<path d="M50.2467 89.4655C50.2286 89.4564 50.2059 89.4428 50.1788 89.4247C50.1517 89.4066 50.1336 89.3885 50.1245 89.3704C50.1155 89.3523 50.0883 89.3433 50.0431 89.3433C49.9978 89.3433 49.9481 89.3297 49.8938 89.3026C49.8395 89.2754 49.7671 89.2709 49.6766 89.289C49.5861 89.3071 49.4775 89.3026 49.3509 89.2754C49.2242 89.2483 49.0658 89.2438 48.8758 89.2619H48.5093V88.6375H48.6722C48.8894 88.6647 49.6359 88.6782 50.9117 88.6782C52.1876 88.6782 52.9341 88.6647 53.1512 88.6375H53.3141V89.2619H52.9477C52.4047 89.2619 52.0654 89.2709 51.9297 89.289C51.794 89.3071 51.6809 89.3659 51.5904 89.4655L51.5768 92.3836C51.5768 94.329 51.5813 95.3018 51.5904 95.3018C51.6266 95.2927 51.6718 95.2791 51.7261 95.261C51.7804 95.2429 51.8935 95.1887 52.0654 95.0982C52.2373 95.0077 52.3866 94.8946 52.5133 94.7589C52.64 94.6231 52.7712 94.4241 52.9069 94.1616C53.0427 93.8992 53.1377 93.5916 53.192 93.2387C53.2191 93.0487 53.2417 92.7184 53.2598 92.2479C53.2779 91.7774 53.3277 91.4335 53.4091 91.2163C53.5358 90.8273 53.7484 90.5965 54.047 90.5241C54.1104 90.506 54.3411 90.497 54.7393 90.497H55.3365L55.4315 90.5784V90.9177C55.3591 90.972 55.2957 90.9992 55.2415 90.9992C54.9881 91.0354 54.8207 91.1847 54.7393 91.4471C54.6578 91.7095 54.599 92.0895 54.5628 92.5872C54.5266 93.0849 54.4633 93.4694 54.3728 93.7409C53.9656 94.9172 53.0924 95.6139 51.7532 95.8311L51.5768 95.8583V96.469L51.5904 97.0798C51.6537 97.1431 51.708 97.1839 51.7532 97.202C51.7985 97.2201 51.9116 97.2382 52.0926 97.2563C52.2735 97.2743 52.5586 97.2834 52.9477 97.2834H53.3141V97.9077H53.1512C52.9341 97.8806 52.1876 97.867 50.9117 97.867C49.6359 97.867 48.8894 97.8806 48.6722 97.9077H48.5093V97.2834H48.8758C49.0568 97.2834 49.2106 97.2834 49.3373 97.2834C49.464 97.2834 49.5771 97.2789 49.6766 97.2698C49.7761 97.2608 49.8485 97.2563 49.8938 97.2563C49.939 97.2563 49.9888 97.2427 50.0431 97.2155C50.0974 97.1884 50.1245 97.1748 50.1245 97.1748C50.1245 97.1748 50.1426 97.1612 50.1788 97.1341C50.215 97.1069 50.2376 97.0889 50.2467 97.0798V95.8583C48.3103 95.6139 47.3014 94.4603 47.2199 92.3972C47.2018 91.5195 46.9847 91.0535 46.5684 90.9992C46.4417 90.9992 46.3784 90.9223 46.3784 90.7684C46.3784 90.6327 46.3965 90.5558 46.4327 90.5377C46.4689 90.5196 46.591 90.506 46.7992 90.497H47.0842H47.2606C47.5321 90.497 47.7176 90.5106 47.8171 90.5377C47.9167 90.5649 48.0207 90.6327 48.1293 90.7413C48.256 90.868 48.3465 91.0263 48.4008 91.2163C48.4731 91.4064 48.5139 91.7366 48.5229 92.2072C48.532 92.6777 48.5908 93.1482 48.6994 93.6187C48.8079 94.0893 49.0161 94.4783 49.3237 94.786C49.4594 94.9127 49.5997 95.0167 49.7445 95.0982C49.8892 95.1796 50.0114 95.2384 50.1109 95.2746L50.2331 95.3018C50.2421 95.3018 50.2467 94.329 50.2467 92.3836V89.4655Z" fill="#953D0F"/>
<path d="M60.7222 93.198C60.7222 93.0803 60.7855 92.9899 60.9122 92.9265H69.5581C69.6938 92.9989 69.7617 93.0894 69.7617 93.198C69.7617 93.2975 69.6983 93.3835 69.5716 93.4559L65.2555 93.4694H60.9393C60.7945 93.4242 60.7222 93.3337 60.7222 93.198ZM60.7222 95.8311C60.7222 95.6954 60.7945 95.6049 60.9393 95.5596H69.5716C69.6983 95.6501 69.7617 95.7406 69.7617 95.8311C69.7617 95.9487 69.6938 96.0392 69.5581 96.1026H60.9122C60.7855 96.0392 60.7222 95.9487 60.7222 95.8311Z" fill="#953D0F"/>
<path d="M80.9701 95.0167C80.7891 95.0167 80.6986 94.9579 80.6986 94.8403C80.6986 94.8041 80.7213 94.6955 80.7665 94.5145C80.8117 94.3336 80.8344 94.1752 80.8344 94.0395C80.8344 93.759 80.7394 93.5871 80.5493 93.5237C80.3593 93.4604 79.9205 93.4287 79.2328 93.4287H78.527C78.5179 93.4468 78.3596 94.0712 78.0519 95.3018C77.7443 96.5324 77.5905 97.1658 77.5905 97.202C77.5905 97.2382 77.6402 97.2563 77.7398 97.2563C77.8393 97.2563 78.2012 97.2653 78.8256 97.2834C79.6761 97.2834 80.2372 97.2743 80.5086 97.2563C80.7801 97.2382 81.0515 97.1793 81.323 97.0798C81.7664 96.935 82.1328 96.6817 82.4224 96.3197C82.7119 95.9578 83.0332 95.3651 83.386 94.5417C83.4765 94.3426 83.5353 94.234 83.5625 94.2159C83.6258 94.1978 83.6937 94.1888 83.7661 94.1888C83.9471 94.1888 84.0375 94.2476 84.0375 94.3652C83.0874 96.6636 82.5898 97.8354 82.5445 97.8806C82.5174 97.8987 81.2234 97.9077 78.6627 97.9077H76.0974C75.1745 97.9077 74.713 97.858 74.713 97.7584C74.713 97.7403 74.7266 97.677 74.7537 97.5684C74.7899 97.4236 74.8261 97.3422 74.8623 97.3241C74.8985 97.306 75.0026 97.2924 75.1745 97.2834C75.4188 97.2834 75.6903 97.2698 75.9889 97.2427C76.1155 97.2155 76.2015 97.1612 76.2467 97.0798C76.2648 97.0346 76.5861 95.7632 77.2104 93.2658C77.8348 90.7684 78.1515 89.5016 78.1605 89.4655C78.1605 89.4021 78.1424 89.3704 78.1062 89.3704C78.0338 89.3433 77.794 89.3207 77.3869 89.3026H76.9661C76.9118 89.2483 76.8847 89.2121 76.8847 89.194C76.8847 89.1759 76.8937 89.099 76.9118 88.9633C76.948 88.8094 76.9933 88.7144 77.0475 88.6782H84.5669C84.6302 88.7144 84.6619 88.7642 84.6619 88.8275C84.6619 88.8728 84.6031 89.3795 84.4854 90.3477C84.3678 91.3159 84.3045 91.8136 84.2954 91.8407C84.2773 91.904 84.1868 91.9357 84.024 91.9357H83.8611C83.7978 91.8905 83.7661 91.8316 83.7661 91.7593L83.8068 91.4471C83.834 91.2299 83.8475 90.9947 83.8475 90.7413C83.8475 90.4698 83.8159 90.2436 83.7525 90.0627C83.6892 89.8817 83.6032 89.7414 83.4946 89.6419C83.386 89.5424 83.2277 89.47 83.0196 89.4247C82.8115 89.3795 82.5988 89.3478 82.3817 89.3297C82.1645 89.3116 81.8749 89.3026 81.513 89.3026H80.8751C80.0788 89.3116 79.658 89.3252 79.6128 89.3433C79.5766 89.3614 79.5495 89.4021 79.5314 89.4655C79.5223 89.4926 79.3821 90.0491 79.1106 91.1349C78.8392 92.2207 78.6989 92.7727 78.6899 92.7908C78.898 92.7998 79.1151 92.8044 79.3414 92.8044H79.6942C80.2914 92.8044 80.7032 92.7365 80.9294 92.6008C81.1556 92.465 81.3592 92.0986 81.5401 91.5014C81.5763 91.3566 81.6035 91.2752 81.6216 91.2571C81.6397 91.239 81.7166 91.2254 81.8523 91.2163C81.8976 91.2163 81.9338 91.2163 81.9609 91.2163C81.988 91.2163 82.0107 91.2209 82.0288 91.2299C82.0469 91.239 82.0559 91.2435 82.0559 91.2435C82.0559 91.2435 82.065 91.2616 82.0831 91.2978C82.1012 91.334 82.1147 91.3521 82.1238 91.3521L81.6759 93.1437C81.3773 94.3471 81.2144 94.9579 81.1873 94.976C81.1601 95.0032 81.0877 95.0167 80.9701 95.0167Z" fill="#953D0F"/>
<path d="M78.8229 86.8595L80.6823 85.0407L80.7909 85.1493C81.9672 86.2713 82.5554 86.8414 82.5554 86.8595L82.2025 87.2531C82.1844 87.244 81.922 87.0178 81.4153 86.5744L80.6959 85.9501L79.9494 86.588C79.8318 86.6875 79.7141 86.7916 79.5965 86.9002C79.4789 87.0088 79.3839 87.0947 79.3115 87.1581L79.2029 87.2395C79.1848 87.2576 79.1169 87.1943 78.9993 87.0495L78.8229 86.8595Z" fill="#953D0F"/>
<path d="M89.2767 89.4655C89.2586 89.4564 89.2359 89.4428 89.2088 89.4247C89.1816 89.4066 89.1635 89.3885 89.1545 89.3704C89.1454 89.3523 89.1183 89.3433 89.0731 89.3433C89.0278 89.3433 88.978 89.3297 88.9238 89.3026C88.8695 89.2754 88.7971 89.2709 88.7066 89.289C88.6161 89.3071 88.5075 89.3026 88.3808 89.2754C88.2542 89.2483 88.0958 89.2438 87.9058 89.2619H87.5393V88.6375H87.7022C87.9194 88.6647 88.6659 88.6782 89.9417 88.6782C91.2176 88.6782 91.9641 88.6647 92.1812 88.6375H92.3441V89.2619H91.9776C91.4347 89.2619 91.0954 89.2709 90.9597 89.289C90.824 89.3071 90.7108 89.3659 90.6204 89.4655L90.6068 92.3836C90.6068 94.329 90.6113 95.3018 90.6204 95.3018C90.6566 95.2927 90.7018 95.2791 90.7561 95.261C90.8104 95.2429 90.9235 95.1887 91.0954 95.0982C91.2673 95.0077 91.4166 94.8946 91.5433 94.7589C91.67 94.6231 91.8012 94.4241 91.9369 94.1616C92.0727 93.8992 92.1677 93.5916 92.222 93.2387C92.2491 93.0487 92.2717 92.7184 92.2898 92.2479C92.3079 91.7774 92.3577 91.4335 92.4391 91.2163C92.5658 90.8273 92.7784 90.5965 93.077 90.5241C93.1404 90.506 93.3711 90.497 93.7693 90.497H94.3665L94.4615 90.5784V90.9177C94.3891 90.972 94.3257 90.9992 94.2714 90.9992C94.0181 91.0354 93.8507 91.1847 93.7693 91.4471C93.6878 91.7095 93.629 92.0895 93.5928 92.5872C93.5566 93.0849 93.4933 93.4694 93.4028 93.7409C92.9956 94.9172 92.1224 95.6139 90.7832 95.8311L90.6068 95.8583V96.469L90.6204 97.0798C90.6837 97.1431 90.738 97.1839 90.7832 97.202C90.8285 97.2201 90.9416 97.2382 91.1226 97.2563C91.3035 97.2743 91.5886 97.2834 91.9776 97.2834H92.3441V97.9077H92.1812C91.9641 97.8806 91.2176 97.867 89.9417 97.867C88.6659 97.867 87.9194 97.8806 87.7022 97.9077H87.5393V97.2834H87.9058C88.0868 97.2834 88.2406 97.2834 88.3673 97.2834C88.494 97.2834 88.6071 97.2789 88.7066 97.2698C88.8061 97.2608 88.8785 97.2563 88.9238 97.2563C88.969 97.2563 89.0188 97.2427 89.0731 97.2155C89.1273 97.1884 89.1545 97.1748 89.1545 97.1748C89.1545 97.1748 89.1726 97.1612 89.2088 97.1341C89.245 97.1069 89.2676 97.0889 89.2767 97.0798V95.8583C87.3403 95.6139 86.3313 94.4603 86.2499 92.3972C86.2318 91.5195 86.0147 91.0535 85.5984 90.9992C85.4717 90.9992 85.4084 90.9223 85.4084 90.7684C85.4084 90.6327 85.4265 90.5558 85.4627 90.5377C85.4989 90.5196 85.621 90.506 85.8292 90.497H86.1142H86.2906C86.5621 90.497 86.7476 90.5106 86.8471 90.5377C86.9467 90.5649 87.0507 90.6327 87.1593 90.7413C87.286 90.868 87.3765 91.0263 87.4307 91.2163C87.5031 91.4064 87.5439 91.7366 87.5529 92.2072C87.562 92.6777 87.6208 93.1482 87.7293 93.6187C87.8379 94.0893 88.046 94.4783 88.3537 94.786C88.4894 94.9127 88.6297 95.0167 88.7745 95.0982C88.9192 95.1796 89.0414 95.2384 89.1409 95.2746L89.2631 95.3018C89.2721 95.3018 89.2767 94.329 89.2767 92.3836V89.4655Z" fill="#953D0F"/>
</g>
<g clip-path="url(#clip1_3330_2)">
<path d="M33 28.2711L33 36C33 37.6662 34 39.5 34 39.5L38.5 44.5L45 49.5L49.5 51L55.2024 53L57 52.5L57.5 50.5L57 48.5L58.1401 45.5L58.1401 43L57 41.5L55.2024 39.5L55.5 37.5C55.5 37.5 53.5233 32.5388 52.5116 31.5194C51.5 30.5 52.1937 30.5786 50.3469 29.7893C48.5 29 50 30.0423 48 28.2711C46 26.5 46.5 28 44.5 27C42.5 26 46 23 41.5 23.5C37 24 38 20.5 35.5 21C33 21.5 27.5 19.5 27.5 19.5L26 22.5C26 22.5 33 26.7953 33 28.2711Z" fill="url(#paint0_linear_3330_2)"/>
<g clip-path="url(#clip2_3330_2)">
<path d="M23.3776 34.6105C26.0164 36.6699 24.1013 51.9687 20.7336 56.995C17.3658 62.0214 12.095 58.5514 12.8222 51.4297C13.526 44.3452 20.7389 32.551 23.3776 34.6105Z" fill="url(#paint1_linear_3330_2)"/>
</g>
</g>
</g>
<defs>
<filter id="filter0_d_3330_2" x="30" y="85" width="68.4615" height="20.9078" filterUnits="userSpaceOnUse" color-interpolation-filters="sRGB">
<feFlood flood-opacity="0" result="BackgroundImageFix"/>
<feColorMatrix in="SourceAlpha" type="matrix" values="0 0 0 0 0 0 0 0 0 0 0 0 0 0 0 0 0 0 127 0" result="hardAlpha"/>
<feOffset dy="4"/>
<feGaussianBlur stdDeviation="2"/>
<feComposite in2="hardAlpha" operator="out"/>
<feColorMatrix type="matrix" values="0 0 0 0 0 0 0 0 0 0 0 0 0 0 0 0 0 0 0.25 0"/>
<feBlend mode="normal" in2="BackgroundImageFix" result="effect1_dropShadow_3330_2"/>
<feBlend mode="normal" in="SourceGraphic" in2="effect1_dropShadow_3330_2" result="shape"/>
</filter>
<linearGradient id="paint0_linear_3330_2" x1="38.3758" y1="27.6822" x2="54.8283" y2="56.1788" gradientUnits="userSpaceOnUse">
<stop stop-color="#99EDB5"/>
<stop offset="0.2" stop-color="#59A282"/>
<stop offset="0.5" stop-color="#223D31"/>
<stop offset="1" stop-color="#953D0F"/>
</linearGradient>
<linearGradient id="paint1_linear_3330_2" x1="18.4274" y1="34.5467" x2="19.6228" y2="58.0355" gradientUnits="userSpaceOnUse">
<stop stop-color="#67B399"/>
<stop offset="0.5" stop-color="#99EDB5"/>
<stop offset="1" stop-color="#953D0F"/>
</linearGradient>
<clipPath id="clip0_3330_2">
<rect width="100" height="100" fill="white"/>
</clipPath>
<clipPath id="clip1_3330_2">
<rect width="140.942" height="88.26" fill="white" transform="translate(-26.8261 127.459) rotate(-91.7265)"/>
</clipPath>
<clipPath id="clip2_3330_2">
<rect width="71.8329" height="50.6135" fill="white" transform="translate(-6.34918 89.3124) rotate(-92.9132)"/>
</clipPath>
</defs>
</svg>
